Corin Nemec (Mansquito, SS Doomtrooper) co-stars alongside Carpenter as TV ghost hunters that
enter a reportedly haunted house that may prove to be the death of them.


Encoded By .......: Stang91
Runtime ..........: 1h 30mn
File Size ........: 718 MiB
Resolution .......: 720x400 
http://www.imdb.com/title/tt1334536/
Genre ............: Horror
Language .........: English
Subtitles ........: None
General
Complete name : House of Bones 2010 DVDRip Xvid AC3 Stang91 LKRG\House_of_Bones_Stang91-LKRG.avi
Format : AVI
Format/Info : Audio Video Interleave
File size : 718 MiB
Duration : 1h 30mn
Overall bit rate : 1 112 Kbps
Writing application : VirtualDubMod 1.5.10.2 (build 2540/release)
Writing library : VirtualDubMod build 2540/release

Video
ID : 0
Format : MPEG-4 Visual
Format profile : Advanced Simple@L5
Format settings, BVOP : Yes
Format settings, QPel : No
Format settings, GMC : No warppoints
Format settings, Matrix : Default (H.263)
Muxing mode : Packed bitstream
Codec ID : XVID
Codec ID/Hint : XviD
Duration : 1h 30mn
Bit rate : 879 Kbps
Width : 720 pixels
Height : 400 pixels
Display aspect ratio : 16:9
Frame rate : 23.976 fps
Color space : YUV
Chroma subsampling : 4:2:0
Bit depth : 8 bits
Scan type : Progressive
Compression mode : Lossy
Bits/(Pixel*Frame) : 0.127
Stream size : 567 MiB (79%)
Writing library : XviD 64

Audio
ID : 1
Format : AC-3
Format/Info : Audio Coding 3
Mode extension : CM (complete main)
Codec ID : 2000
Duration : 1h 30mn
Bit rate mode : Constant
Bit rate : 224 Kbps
Channel(s) : 2 channels
Channel positions : Front: L R
Sampling rate : 48.0 KHz
Bit depth : 16 bits
Compression mode : Lossy
Stream size : 145 MiB (20%)
Alignment : Split accross interleaves
Interleave, duration : 42 ms (1.00 video frame)
Interleave, preload duration : 500 ms
 
http://www.shotpix.com/images/60829885667905879995.png 
http://www.shotpix.com/images/35363636668922486382.png 
http://www.shotpix.com/images/33959097609536017348.png 
http://www.shotpix.com/images/41591852837117633207.png